# Blender v2.78 (sub 0) OBJ File: 'origami.blend'
# www.blender.org
mtllib ship.mtl
o Boat_Cube.022
v 1.103434 0.361600 0.000000
v 0.665221 0.005566 0.000000
v -1.103434 0.361600 0.000000
v -0.665221 0.005566 0.000000
v 0.000000 0.361600 0.422381
v 0.000000 0.005566 0.269642
v 0.000000 0.361600 -0.422381
v 0.000000 0.005566 -0.269642
v 0.000000 0.727871 0.000000
vt 0.9638 0.4855
vt 0.4805 0.4855
vt 0.7964 0.3264
vt 0.5018 0.3281
vt 0.2182 0.2481
vt 0.0145 0.5145
vt 0.4979 0.5145
vt 0.1819 0.6736
vt 0.4341 0.9855
vt 0.4766 0.6719
vt 0.5442 0.0145
vt 0.7601 0.7519
vt 0.0145 0.3570
vt 0.9638 0.6430
vn 0.3272 -0.4027 0.8548
vn -0.3491 -0.3695 0.8612
vn -0.3272 -0.4027 -0.8548
vn -0.3550 0.3270 -0.8758
vn 0.3491 -0.3695 0.8612
vn 0.3550 0.3270 0.8758
vn -0.3491 -0.3695 -0.8612
vn 0.3491 -0.3695 -0.8612
vn -0.3272 -0.4027 0.8548
vn -0.3550 0.3270 0.8758
vn 0.3550 0.3270 -0.8758
vn 0.3272 -0.4027 -0.8548
usemtl None
s off
f 1/1/1 5/2/1 2/3/1
f 6/4/2 5/2/2 4/5/2
f 3/6/3 7/7/3 4/8/3
f 4/8/4 9/9/4 8/10/4
f 5/2/5 6/4/5 2/3/5
f 2/3/6 9/11/6 6/4/6
f 7/7/7 8/10/7 4/8/7
f 8/10/8 7/7/8 2/12/8
f 5/2/9 3/13/9 4/5/9
f 6/4/10 9/11/10 4/5/10
f 8/10/11 9/9/11 2/12/11
f 7/7/12 1/14/12 2/12/12
